<svg width="92" height="44" viewBox="0 0 92 44" fill="none" xmlns="http://www.w3.org/2000/svg">
<path d="M27.5731 32.6664C26.3429 32.6664 25.3457 31.6692 25.3457 30.439V15.8631C25.3457 14.6329 26.3429 13.6357 27.5731 13.6357V13.6357C28.8032 13.6357 29.8005 14.6329 29.8005 15.8631V30.439C29.8005 31.6692 28.8032 32.6664 27.5731 32.6664V32.6664Z" fill="#9C9C9C"/>
<path d="M59.6674 13.4219C61.1879 13.4219 62.5303 13.7189 63.6945 14.3128C64.8824 14.9068 65.809 15.8215 66.4742 17.057C67.1395 18.2686 67.4721 19.8367 67.4721 21.7612V30.439C67.4721 31.6692 66.4749 32.6664 65.2447 32.6664V32.6664C64.0146 32.6664 63.0173 31.6692 63.0173 30.439V22.3314C63.0173 20.6445 62.6491 19.3853 61.9126 18.5538C61.176 17.7222 60.1188 17.3064 58.7408 17.3064C57.7667 17.3064 56.8995 17.5202 56.1392 17.9479C55.4027 18.3756 54.8206 19.0052 54.3929 19.8367C53.989 20.6683 53.7871 21.7255 53.7871 23.0085V30.439C53.7871 31.6692 52.7898 32.6664 51.5597 32.6664V32.6664C50.3296 32.6664 49.3323 31.6692 49.3323 30.439V22.3314C49.3323 20.6445 48.9641 19.3853 48.2275 18.5538C47.491 17.7222 46.4338 17.3064 45.0558 17.3064C44.0817 17.3064 43.2145 17.5202 42.4542 17.9479C41.7177 18.3756 41.1356 19.0052 40.7079 19.8367C40.304 20.6683 40.1021 21.7255 40.1021 23.0085V30.439C40.1021 31.6692 39.1048 32.6664 37.8747 32.6664V32.6664C36.6446 32.6664 35.6473 31.6692 35.6473 30.439V15.7562C35.6473 14.5851 36.5967 13.6357 37.7678 13.6357H38.9218C39.4555 13.6357 39.8882 14.0684 39.8882 14.6022V17.2025C39.8882 17.5746 39.3866 17.6931 39.2202 17.3602V17.3602C39.1697 17.2593 39.1702 17.1399 39.2246 17.041C39.862 15.8835 40.7603 14.9979 41.9196 14.3841C43.1551 13.7426 44.5568 13.4219 46.1249 13.4219C47.9068 13.4219 49.4511 13.8614 50.7578 14.7405C51.7961 15.4265 52.5595 16.3874 53.048 17.6233C53.2328 18.0908 52.7716 18.5156 52.2966 18.3509V18.3509C51.947 18.2295 51.772 17.8348 51.9504 17.5105C52.5785 16.3685 53.4996 15.4333 54.7137 14.7048C56.1392 13.8495 57.7904 13.4219 59.6674 13.4219Z" fill="#9C9C9C"/>
<path d="M81.7526 32.9159C79.8044 32.9159 78.07 32.5001 76.5495 31.6685C75.0289 30.8132 73.8291 29.6491 72.95 28.176C72.071 26.703 71.6314 25.028 71.6314 23.1511C71.6314 21.2504 72.071 19.5754 72.95 18.1261C73.8291 16.6531 75.0289 15.5008 76.5495 14.6692C78.07 13.8377 79.8044 13.4219 81.7526 13.4219C83.7246 13.4219 85.4709 13.8377 86.9914 14.6692C88.5357 15.5008 89.7356 16.6412 90.5909 18.0905C91.4699 19.5397 91.9095 21.2266 91.9095 23.1511C91.9095 25.028 91.4699 26.703 90.5909 28.176C89.7356 29.6491 88.5357 30.8132 86.9914 31.6685C85.4709 32.5001 83.7246 32.9159 81.7526 32.9159ZM81.7526 29.1026C82.8455 29.1026 83.8196 28.865 84.6749 28.3898C85.5303 27.9147 86.1955 27.2257 86.6707 26.3228C87.1696 25.42 87.4191 24.3628 87.4191 23.1511C87.4191 21.9156 87.1696 20.8583 86.6707 19.9793C86.1955 19.0764 85.5303 18.3874 84.6749 17.9123C83.8196 17.4371 82.8574 17.1995 81.7883 17.1995C80.6954 17.1995 79.7213 17.4371 78.8659 17.9123C78.0344 18.3874 77.3692 19.0764 76.8702 19.9793C76.3713 20.8583 76.1218 21.9156 76.1218 23.1511C76.1218 24.3628 76.3713 25.42 76.8702 26.3228C77.3692 27.2257 78.0344 27.9147 78.8659 28.3898C79.7213 28.865 80.6835 29.1026 81.7526 29.1026Z" fill="#9C9C9C"/>
<path d="M30.1913 2.91501C30.1913 4.52492 28.8863 5.83002 27.2763 5.83002C25.6664 5.83002 24.3613 4.52492 24.3613 2.91501C24.3613 1.30509 25.6664 0 27.2763 0C28.8863 0 30.1913 1.30509 30.1913 2.91501Z" fill="#9C9C9C"/>
<path fill-rule="evenodd" clip-rule="evenodd" d="M12.3232 31.8978C16.2958 31.8978 19.6542 28.7734 19.6562 24.7517C19.6562 24.7498 19.6577 24.7483 19.6596 24.7483V24.7483C19.6615 24.7483 19.663 24.7468 19.663 24.7449V11.1092C19.663 9.89415 18.678 8.90918 17.463 8.90918V8.90918C16.248 8.90918 15.263 9.89415 15.263 11.1092V24.7446C15.263 24.7465 15.2615 24.748 15.2596 24.748V24.748C15.2577 24.748 15.2562 24.7496 15.2562 24.7515C15.2543 26.194 14.0178 27.4978 12.3232 27.4978C11.8874 27.4978 11.4789 27.4096 11.1134 27.254C9.99548 26.778 8.67871 26.1223 7.55676 26.5887V26.5887C6.4348 27.0551 5.88352 28.3755 6.66937 29.3022C8.02354 30.899 10.0666 31.8978 12.3232 31.8978ZM11.6456 38.6079C10.5933 38.0004 9.19288 38.4898 8.00948 38.7652C7.31784 38.9262 6.54124 38.8361 5.82535 38.4227C5.44793 38.2048 5.13826 37.9243 4.89954 37.6067C4.16941 36.6355 3.35689 35.4093 2.15206 35.2523V35.2523C0.947227 35.0952 -0.190404 35.963 0.0268266 37.1585C0.401156 39.2185 1.67108 41.105 3.62535 42.2332C6.41805 43.8456 9.88961 43.4727 12.1742 41.4128C13.0766 40.5992 12.6978 39.2154 11.6456 38.6079V38.6079Z" fill="#9C9C9C"/>
</svg>
